<?xml version="1.0" encoding="utf-8"?><svg viewBox="0 0 80 70" xmlns="http://www.w3.org/2000/svg" xmlns:xlink="http://www.w3.org/1999/xlink"><style>:root>svg{display:none}:root>svg:target{display:block}</style><svg fill="none" viewBox="0 0 80 70" id="icon" xmlns="http://www.w3.org/2000/svg"><path d="M19.107 33.797c-1.262 2.179-2.86 3.609-3.573 3.2-.714-.414-.272-2.51.99-4.69 1.261-2.179 2.86-3.609 3.573-3.2.714.414.267 2.515-.99 4.69z" fill="#fff"/><path d="M70.353 7.66c.875-.873 7.893-7.157 7.893-7.157l1.055 61.273-8.948 6.483V7.66z" fill="#F7C94A"/><path d="M70.354 68.259S-3.673 72.11.886 65.279c14.09-21.101 10.513-38.406 12.98-57.618h56.488v60.598z" fill="#F7C94A"/><path d="M13.867 7.66 22.989.306l55.257.198-7.892 7.158H13.867z" fill="#27548D"/><path d="m71.253 19.555-58.543.358 1.184-12.391h56.828l.53 12.033z" fill="#27548D"/><path d="M29.831 13.79c0 .772-.626 1.401-1.404 1.401a1.403 1.403 0 1 1 0-2.804c.778 0 1.404.63 1.404 1.402zm23.683 0c0 .772-.626 1.401-1.405 1.401a1.403 1.403 0 1 1 0-2.804c.774 0 1.405.63 1.405 1.402z" fill="#fff"/><path d="m77.841.736.23 61.932 1.23-.892L77.84 1.05l-1.966 1.604.391 61.32-2.229 1.614V4.508l-3.02 2.719.907 59.446m-50.863-.782-14.474-1.31 9.21-18.39" stroke="#010202" stroke-miterlimit="10"/><path d="M50.276 32.04c-2.555-1.111-6.018.696-8.857 4.243-2.839-3.547-6.299-5.354-8.857-4.242-3.527 1.536-3.991 8.05-1.036 14.548 1.855 4.078 4.615 7.183 7.29 8.551.235.175.482.322.755.443.576.252 1.2.35 1.852.318a4.058 4.058 0 0 0 1.851-.319c.27-.117.52-.267.756-.442 2.67-1.368 5.43-4.473 7.29-8.55 2.947-6.5 2.483-13.013-1.044-14.55z" fill="#D31C1C"/><path d="m27.212 32.894-4.143-4.13m32.557 3.54 4.144-4.13M25.856 45.219 20.11 46.36m36.873-1.731 5.747 1.142" stroke="#000"/></svg><svg fill="none" viewBox="0 0 18 21" id="star" xmlns="http://www.w3.org/2000/svg"><path d="M6.9 7.81C6.744 7.352 7.893.026 7.944.458c.052.431 2.73 6.42 2.73 6.42l2.98-3.705-1.34 6.086 4.782 2.537s-5.32.65-5.24.78c.079.13 1.191 8.062 1.191 8.062l-4.583-7.815s-6.068 2.304-5.546 1.787c.52-.517 3.352-4.435 3.352-4.435S.464 5.362.985 5.487C1.507 5.614 6.9 7.81 6.9 7.81z" fill="#F7C94A"/></svg></svg>