<svg width="80" height="70" viewBox="0 0 80 70" fill="none" xmlns="http://www.w3.org/2000/svg">
<path d="M19.1069 33.7969C17.8452 35.976 16.2473 37.4058 15.5336 36.9967C14.8198 36.5829 15.2619 34.4865 16.5236 32.3073C17.7853 30.1282 19.3832 28.6984 20.0969 29.1076C20.8107 29.5213 20.364 31.6223 19.1069 33.7969Z" fill="white"/>
<path d="M70.3535 7.66085C71.2284 6.78735 78.2461 0.502747 78.2461 0.502747L79.3006 61.7765L70.3535 68.2588V7.66085Z" fill="#F7C94A"/>
<path d="M70.3537 68.2588C70.3537 68.2588 -3.67292 72.1114 0.885824 65.2797C14.9765 44.1778 11.3986 26.8733 13.8667 7.66089H70.3537V68.2588Z" fill="#F7C94A"/>
<path d="M13.8667 7.66084L22.9888 0.305054L78.2463 0.502741L70.3537 7.66084H13.8667Z" fill="#27548D"/>
<path d="M71.2526 19.5548L12.71 19.913L13.8939 7.52173H70.7215L71.2526 19.5548Z" fill="#27548D"/>
<path d="M29.8314 13.7892C29.8314 14.5615 29.2051 15.1914 28.4269 15.1914C27.6533 15.1914 27.0225 14.5661 27.0225 13.7892C27.0225 13.0168 27.6533 12.387 28.4269 12.387C29.2051 12.387 29.8314 13.0168 29.8314 13.7892Z" fill="white"/>
<path d="M53.514 13.7892C53.514 14.5615 52.8878 15.1914 52.1095 15.1914C51.3359 15.1914 50.7051 14.5661 50.7051 13.7892C50.7051 13.0168 51.3313 12.387 52.1095 12.387C52.8831 12.387 53.514 13.0168 53.514 13.7892Z" fill="white"/>
<path d="M77.841 0.735962L78.0712 62.6683L79.3007 61.7764L77.841 1.04984L75.8747 2.65432L76.2661 63.974L74.0374 65.5877V4.50705L71.0171 7.22664L71.9238 66.6726" stroke="#010202" stroke-miterlimit="10"/>
<path d="M21.0593 65.8911L6.58643 64.5809L15.796 46.1914" stroke="#010202" stroke-miterlimit="10"/>
<path d="M50.2762 32.0406C47.7215 30.9288 44.2579 32.7355 41.419 36.283C38.5801 32.7355 35.1202 30.9288 32.5618 32.0406C29.0347 33.5767 28.5709 40.0903 31.5258 46.5893C33.381 50.6671 36.1414 53.7722 38.8157 55.14C39.0514 55.3155 39.2982 55.4618 39.5713 55.5825C40.1473 55.8349 40.7719 55.9336 41.4227 55.9007C42.0736 55.9336 42.6982 55.8349 43.2742 55.5825C43.5435 55.4655 43.7941 55.3155 44.0298 55.14C46.7004 53.7722 49.4608 50.6671 51.3197 46.5893C54.2671 40.0903 53.8033 33.5767 50.2762 32.0406Z" fill="#D31C1C"/>
<path d="M27.2125 32.8944L23.0688 28.764" stroke="black"/>
<path d="M55.6263 32.3043L59.77 28.1739" stroke="black"/>
<path d="M25.8563 45.2186L20.1094 46.3608" stroke="black"/>
<path d="M56.9831 44.6285L62.73 45.7708" stroke="black"/>
</svg>
