<svg width="18" height="21" viewBox="0 0 18 21" fill="none" xmlns="http://www.w3.org/2000/svg">
<path d="M6.89968 7.80914C6.74428 7.35253 7.89253 0.0268038 7.94443 0.45864C7.99632 0.890476 10.6749 6.87936 10.6749 6.87936L13.6543 3.17444L12.3144 9.26015L17.0959 11.7975C17.0959 11.7975 11.7765 12.4462 11.8558 12.5763C11.935 12.7064 13.0475 20.6389 13.0475 20.6389L8.46427 12.824C8.46427 12.824 2.39637 15.1276 2.91823 14.6109C3.43838 14.0945 6.27013 10.1757 6.27013 10.1757C6.27013 10.1757 0.463574 5.36244 0.984928 5.48724C1.50668 5.61374 6.89968 7.80914 6.89968 7.80914Z" fill="#F7C94A"/>
</svg>
